Patient4_TMGait_0pt7_02_right_22_GRF.mot
version=1
nRows=39
nColumns=19
inDegrees=no
endheader
time	F1x	F1y	F1z	M1x	M1y	M1z	F2x	F2y	F2z	M2x	M2y	M2z	EC1x	EC1y	EC1z	EC2x	EC2y	EC2z
24.47	2.7084	727.0854	63.4356	-241.0788	-64.5822	768.1959	-5.7626	13.8586	18.4147	-1.2655	-9.0277	15.6625	-0.0592	0.0182	-0.0073	-0.0462	0.0165	0.9585
24.481	1.6782	723.3931	63.9643	-239.5027	-64.4895	759.8148	-4.0112	10.495	12.2723	-0.38625	-5.9463	11.9475	-0.0592	0.0182	-0.0073	-0.0462	0.0165	0.9585
24.492	1.4631	719.5497	64.1771	-237.9068	-63.8061	750.6356	-2.5401	7.6684	7.0798	0.36808	-3.3212	8.8073	-0.0592	0.0182	-0.0073	-0.0462	0.0165	0.9585
24.503	2.1217	715.9925	64.0599	-236.4811	-62.5486	741.2756	-1.4191	5.545	3.1254	0.95759	-1.31	6.4342	-0.0592	0.0182	-0.0073	-0.0462	0.0165	0.9585
24.514	3.6343	713.1132	63.5895	-235.398	-60.7314	732.2652	-0.6563	4.1152	0.39378	1.3811	0.092622	4.8274	-0.0592	0.0182	-0.0073	-0.0462	0.0165	0.9585
24.525	5.894	711.1973	62.7956	-234.783	-58.4272	723.9483	-0.19709	3.2782	-1.293	1.6604	0.9714	3.8744	-0.0592	0.0182	-0.0073	-0.0462	0.0165	0.9585
24.536	8.8126	710.3425	61.6875	-234.69	-55.6737	716.4442	0.035097	2.875	-2.1881	1.8175	1.4571	3.4093	-0.0592	0.0182	-0.0073	-0.0462	0.0165	0.9585
24.547	12.3518	710.5203	60.3202	-235.1116	-52.5286	709.7479	0.096409	2.7368	-2.53	1.8721	1.6717	3.2491	-0.0592	0.0182	-0.0073	-0.0462	0.0165	0.9585
24.558	16.5026	711.5966	58.7862	-235.9916	-49.0727	703.7017	0.04561	2.6845	-2.5414	1.8286	1.7343	3.1936	-0.0592	0.0182	-0.0073	-0.0462	0.0165	0.9585
24.569	21.294	713.4798	57.2181	-237.2661	-45.4104	698.2234	-0.079822	2.5292	-2.3898	1.6721	1.734	3.021	-0.0592	0.0182	-0.0073	-0.0462	0.0165	0.9585
24.58	26.7291	716.1625	55.7972	-238.8873	-41.6967	693.3142	-0.23864	2.1089	-2.1881	1.3805	1.7258	2.5246	-0.0592	0.0182	-0.0073	-0.0462	0.0165	0.9585
24.591	32.7077	719.752	54.7029	-240.8371	-38.1168	689.1409	-0.39498	1.2654	-2.023	0.91997	1.7535	1.5283	-0.0592	0.0182	-0.0073	-0.0462	0.0165	0.9585
24.602	39.1275	724.427	54.1174	-243.1149	-34.8661	685.9426	-0.50433	-0.11705	-1.9068	0.26223	1.7969	-0.10493	-0.0592	0.0182	-0.0073	-0.0462	0.0165	0.9585
24.613	45.7516	730.3527	54.1549	-245.72	-32.1193	683.9738	-0.52295	-2.0735	-1.844	-0.60176	1.8325	-2.4164	-0.0592	0.0182	-0.0073	-0.0462	0.0165	0.9585
24.624	52.373	737.5683	54.9165	-248.615	-30.0338	683.3948	-0.39829	-4.5154	-1.7697	-1.6337	1.7687	-5.3016	-0.0592	0.0182	-0.0073	-0.0462	0.0165	0.9585
24.635	58.7036	745.8671	56.4059	-251.6882	-28.7007	684.179	-0.075256	-7.1499	-1.6105	-2.7152	1.4965	-8.4204	-0.0592	0.0182	-0.0073	-0.0462	0.0165	0.9585
24.646	64.4651	754.7265	58.5884	-254.735	-28.1785	685.9732	0.49772	-9.4026	-1.2609	-3.6125	0.87049	-11.0943	-0.0592	0.0182	-0.0073	-0.0462	0.0165	0.9585
24.657	69.3735	763.3487	61.3071	-257.4731	-28.4232	688.2032	1.3673	-10.3121	-0.58803	-3.936	-0.27646	-12.1857	-0.0592	0.0182	-0.0073	-0.0462	0.0165	0.9585
24.668	73.1747	770.6976	64.3525	-259.5585	-29.3375	690.0171	2.551	-8.4387	0.53294	-3.1068	-2.0864	-10.0055	-0.0592	0.0182	-0.0073	-0.0462	0.0165	0.9585
24.679	75.6971	775.6531	67.4433	-260.6315	-30.7424	690.4911	4.0095	-1.8687	2.2302	-0.35493	-4.6762	-2.3132	-0.0592	0.0182	-0.0073	-0.0462	0.0165	0.9585
24.69	76.9053	777.105	70.2781	-260.3553	-32.405	688.6408	5.6029	11.7335	4.5497	5.2526	-8.0259	13.652	-0.0592	0.0182	-0.0073	-0.0462	0.0165	0.9585
24.701	76.8728	774.1423	72.5585	-258.4749	-34.0601	683.6392	7.0324	34.8382	7.4394	14.6984	-11.9252	40.8029	-0.0592	0.0182	-0.0073	-0.0462	0.0165	0.9585
24.712	75.8259	766.0877	73.9675	-254.8297	-35.3759	674.8352	7.7828	69.5503	10.6298	28.8039	-15.82	81.6377	-0.0592	0.0182	-0.0073	-0.0462	0.0165	0.9585
24.723	74.0237	752.4783	74.2464	-249.3408	-36.0528	661.7245	7.067	116.7625	13.5401	47.8924	-18.6838	137.2169	-0.0592	0.0182	-0.0073	-0.0462	0.0165	0.9585
24.734	71.7806	733.005	73.1342	-241.9903	-35.768	643.9038	3.7549	175.061	15.3273	71.3413	-19.0658	205.8831	-0.0592	0.0182	-0.0073	-0.0462	0.0165	0.9585
24.745	69.3659	707.4342	70.4634	-232.7833	-34.2869	621.0199	-2.9469	239.4853	14.9362	97.0964	-15.4156	281.7743	-0.0592	0.0182	-0.0073	-0.0462	0.0165	0.9585
24.756	66.9663	675.5782	66.1753	-221.7255	-31.4961	592.7612	-12.2483	301.7662	11.1444	121.8006	-6.7771	355.0667	-0.0592	0.0182	-0.0073	-0.0462	0.0165	0.9585
24.767	64.6392	637.3388	60.3899	-208.8188	-27.4802	558.9429	-21.9298	354.3069	4.0576	142.4389	5.6793	416.5899	-0.0592	0.0182	-0.0073	-0.0462	0.0165	0.9585
24.778	62.2178	592.8796	53.4414	-194.0975	-22.5725	519.6777	-30.281	394.17	-4.7721	157.8829	19.4542	462.6697	-0.0592	0.0182	-0.0073	-0.0462	0.0165	0.9585
24.789	59.5155	542.7322	45.8357	-177.6823	-17.2471	475.4552	-36.2917	422.7347	-14.4289	168.7285	33.0603	494.7707	-0.0592	0.0182	-0.0073	-0.0462	0.0165	0.9585
24.8	56.3652	487.9719	38.117	-159.8554	-11.9978	427.2696	-39.7845	443.748	-23.4042	176.5493	44.7456	517.3373	-0.0592	0.0182	-0.0073	-0.0462	0.0165	0.9585
24.811	52.5636	430.1474	30.6835	-141.0607	-7.2023	376.5051	-40.8282	461.3186	-30.7743	183.0488	53.5332	535.2316	-0.0592	0.0182	-0.0073	-0.0462	0.0165	0.9585
24.822	47.9625	371.1292	23.864	-121.8545	-3.1733	324.8217	-39.997	478.7491	-36.0768	189.5773	59.1284	552.476	-0.0592	0.0182	-0.0073	-0.0462	0.0165	0.9585
24.833	42.4424	312.9124	17.8499	-102.8537	-0.10597	273.9633	-37.7154	498.0463	-39.1079	196.9491	61.5624	571.4338	-0.0592	0.0182	-0.0073	-0.0462	0.0165	0.9585
24.844	36.07	257.4258	12.7561	-84.6799	1.9217	225.5856	-34.688	520.1635	-40.584	205.4889	61.8788	593.3767	-0.0592	0.0182	-0.0073	-0.0462	0.0165	0.9585
24.855	29.1117	206.4837	8.6101	-67.9359	2.9698	181.2412	-31.3152	545.2086	-41.0863	215.1845	60.9504	618.4696	-0.0592	0.0182	-0.0073	-0.0462	0.0165	0.9585
24.866	22.0455	161.4611	5.4005	-53.0961	3.2037	142.0456	-28.0853	572.7381	-41.6826	225.7671	60.1209	646.3565	-0.0592	0.0182	-0.0073	-0.0462	0.0165	0.9585
24.877	15.3639	123.1436	3.0988	-40.4372	2.8103	108.662	-25.2278	601.7536	-42.9788	236.7993	60.1836	675.892	-0.0592	0.0182	-0.0073	-0.0462	0.0165	0.9585
24.888	9.4778	91.5219	1.5875	-29.981	2.0272	81.0426	-23.0253	631.0685	-45.4177	247.7826	61.7191	705.7607	-0.0592	0.0182	-0.0073	-0.0462	0.0165	0.9585
